<svg width="88" height="88" viewBox="0 0 88 88" fill="none" xmlns="http://www.w3.org/2000/svg">
<rect x="88" width="88" height="88" rx="40" transform="rotate(90 88 0)" fill="#01468B"/>
<path d="M59.8865 15.536L44.0465 36.368C55.2785 37.52 62.5745 43.568 62.5745 54.8C62.5745 66.704 53.3585 74.768 41.7425 74.768C36.0785 74.768 29.4545 73.328 23.5025 68.72L27.3425 61.616C31.2785 64.688 34.7345 66.896 41.6465 66.896C48.4625 66.896 52.8785 61.232 52.8785 55.184C52.8785 47.12 47.3105 40.784 32.3345 42.8L31.4705 41.936C31.6625 41.936 46.1585 22.16 46.0625 22.16H27.6305L29.5505 14.48H59.8865V15.536Z" fill="#FFF7E6"/>
</svg>
