<svg width="41" height="36" viewBox="0 0 41 36" fill="none" xmlns="http://www.w3.org/2000/svg">
<path d="M26.5 2.00536e-07C27.5092 -0.000319158 28.4811 0.380813 29.2211 1.06699C29.9611 1.75318 30.4143 2.69369 30.49 3.7L30.5 4C30.5001 4.48987 30.6799 4.96267 31.0054 5.32874C31.3309 5.69481 31.7795 5.92869 32.266 5.986L32.5 6H34.5C36.0304 5.99991 37.503 6.58465 38.6165 7.63457C39.73 8.68448 40.4002 10.1202 40.49 11.648L40.5 12V30C40.5001 31.5304 39.9153 33.003 38.8654 34.1165C37.8155 35.23 36.3798 35.9002 34.852 35.99L34.5 36H6.5C4.96958 36.0001 3.49697 35.4153 2.38348 34.3654C1.26999 33.3155 0.599785 31.8798 0.51 30.352L0.5 30V12C0.499915 10.4696 1.08465 8.99697 2.13457 7.88348C3.18448 6.76999 4.62021 6.09978 6.148 6.01L6.5 6H8.5C9.03043 6 9.53914 5.78929 9.91421 5.41421C10.2893 5.03914 10.5 4.53043 10.5 4C10.4997 2.99085 10.8808 2.01887 11.567 1.2789C12.2532 0.538941 13.1937 0.0856868 14.2 0.0100004L14.5 2.00536e-07H26.5ZM20.5 14C19.0132 13.9999 17.5793 14.5518 16.4763 15.5488C15.3732 16.5457 14.6797 17.9167 14.53 19.396L14.508 19.7L14.5 20L14.508 20.3C14.5667 21.4725 14.968 22.602 15.6623 23.5486C16.3566 24.4952 17.3134 25.2173 18.414 25.6255C19.5147 26.0338 20.7109 26.1101 21.8546 25.8452C22.9982 25.5803 24.039 24.9857 24.8481 24.135C25.6571 23.2844 26.1989 22.2151 26.4062 21.0597C26.6135 19.9042 26.4773 18.7133 26.0145 17.6344C25.5516 16.5556 24.7825 15.6362 23.8023 14.9902C22.8221 14.3442 21.6739 13.9999 20.5 14Z" fill="black"/>
</svg>
