<svg width="117" height="117" viewBox="0 0 117 117" fill="none" xmlns="http://www.w3.org/2000/svg">
<path fill-rule="evenodd" clip-rule="evenodd" d="M91.8996 31.4493C92.3164 31.0329 92.6472 30.5385 92.8731 29.9943C93.0989 29.4501 93.2153 28.8667 93.2157 28.2775C93.216 27.6883 93.1003 27.1047 92.8752 26.5602C92.65 26.0157 92.3198 25.5209 91.9035 25.104C91.4871 24.6871 90.9927 24.3563 90.4484 24.1305C89.9042 23.9047 89.3208 23.7883 88.7316 23.7879C88.1424 23.7876 87.5589 23.9032 87.0144 24.1284C86.4699 24.3535 85.9751 24.6837 85.5582 25.1001L58.5 52.1583L31.4496 25.1001C30.6076 24.2582 29.4657 23.7852 28.275 23.7852C27.0843 23.7852 25.9423 24.2582 25.1004 25.1001C24.2584 25.9421 23.7854 27.084 23.7854 28.2747C23.7854 29.4654 24.2584 30.6074 25.1004 31.4493L52.1586 58.4997L25.1004 85.5501C24.6835 85.967 24.3528 86.4619 24.1271 87.0066C23.9015 87.5513 23.7854 88.1351 23.7854 88.7247C23.7854 89.3143 23.9015 89.8981 24.1271 90.4428C24.3528 90.9875 24.6835 91.4824 25.1004 91.8993C25.9423 92.7413 27.0843 93.2143 28.275 93.2143C28.8645 93.2143 29.4483 93.0981 29.993 92.8725C30.5377 92.6469 31.0327 92.3162 31.4496 91.8993L58.5 64.8411L85.5582 91.8993C86.4001 92.7402 87.5416 93.2122 88.7316 93.2115C89.9216 93.2108 91.0625 92.7374 91.9035 91.8954C92.7444 91.0535 93.2164 89.9119 93.2157 88.722C93.2149 87.532 92.7415 86.391 91.8996 85.5501L64.8414 58.4997L91.8996 31.4493Z" fill="white"/>
</svg>
