<svg width="819" height="770" viewBox="0 0 819 770" fill="none" xmlns="http://www.w3.org/2000/svg">
<g clip-path="url(#clip0_135_26199)">
<path d="M165.75 0H29.25C13.1235 0 0 16.1941 0 36.0938V180.469C0 183.66 1.02723 186.72 2.85571 188.976C4.68419 191.232 7.16414 192.5 9.75 192.5C12.3359 192.5 14.8158 191.232 16.6443 188.976C18.4728 186.72 19.5 183.66 19.5 180.469V36.0938C19.5 32.9029 20.5272 29.8427 22.3557 27.5864C24.1842 25.3301 26.6641 24.0625 29.25 24.0625H165.75C168.336 24.0625 170.816 22.7949 172.644 20.5386C174.473 18.2823 175.5 15.2221 175.5 12.0312C175.5 8.84036 174.473 5.78017 172.644 3.52387C170.816 1.26757 168.336 0 165.75 0ZM789.75 0H653.25C650.664 0 648.184 1.26757 646.356 3.52387C644.527 5.78017 643.5 8.84036 643.5 12.0312C643.5 15.2221 644.527 18.2823 646.356 20.5386C648.184 22.7949 650.664 24.0625 653.25 24.0625H789.75C792.336 24.0625 794.816 25.3301 796.644 27.5864C798.473 29.8427 799.5 32.9029 799.5 36.0938V180.469C799.5 183.66 800.527 186.72 802.356 188.976C804.184 191.232 806.664 192.5 809.25 192.5C811.836 192.5 814.316 191.232 816.144 188.976C817.973 186.72 819 183.66 819 180.469V36.0938C819 16.1941 805.877 0 789.75 0ZM809.25 577.5C806.664 577.5 804.184 578.768 802.356 581.024C800.527 583.28 799.5 586.34 799.5 589.531V733.906C799.5 737.097 798.473 740.157 796.644 742.414C794.816 744.67 792.336 745.938 789.75 745.938H653.25C650.664 745.938 648.184 747.205 646.356 749.461C644.527 751.718 643.5 754.778 643.5 757.969C643.5 761.16 644.527 764.22 646.356 766.476C648.184 768.732 650.664 770 653.25 770H789.75C805.877 770 819 753.806 819 733.906V589.531C819 586.34 817.973 583.28 816.144 581.024C814.316 578.768 811.836 577.5 809.25 577.5ZM9.75 577.5C7.16414 577.5 4.68419 578.768 2.85571 581.024C1.02723 583.28 0 586.34 0 589.531L0 733.906C0 753.806 13.1235 770 29.25 770H165.75C168.336 770 170.816 768.732 172.644 766.476C174.473 764.22 175.5 761.16 175.5 757.969C175.5 754.778 174.473 751.718 172.644 749.461C170.816 747.205 168.336 745.938 165.75 745.938H29.25C26.6641 745.938 24.1842 744.67 22.3557 742.414C20.5272 740.157 19.5 737.097 19.5 733.906V589.531C19.5 586.34 18.4728 583.28 16.6443 581.024C14.8158 578.768 12.3359 577.5 9.75 577.5ZM458.25 457.188C460.836 457.188 463.316 455.92 465.144 453.664C466.973 451.407 468 448.347 468 445.156V324.844C468 321.653 466.973 318.593 465.144 316.336C463.316 314.08 460.836 312.812 458.25 312.812H360.75C358.164 312.812 355.684 314.08 353.856 316.336C352.027 318.593 351 321.653 351 324.844V445.156C351 448.347 352.027 451.407 353.856 453.664C355.684 455.92 358.164 457.188 360.75 457.188H458.25ZM370.5 336.875H448.5V433.125H370.5V336.875Z" fill="#CFCFCF" fill-opacity="0.6"/>
</g>
<defs>
<clipPath id="clip0_135_26199">
<rect width="819" height="770" fill="white"/>
</clipPath>
</defs>
</svg>
