<svg width="115" height="89" viewBox="0 0 115 89" fill="none" xmlns="http://www.w3.org/2000/svg">
<path fill-rule="evenodd" clip-rule="evenodd" d="M113.301 41.0332C114.219 41.9532 114.735 43.2001 114.735 44.5003C114.735 45.8005 114.219 47.0475 113.3 47.9674L74.0505 87.2174C73.6013 87.6994 73.0597 88.0861 72.4579 88.3542C71.856 88.6224 71.2063 88.7666 70.5476 88.7782C69.8888 88.7898 69.2345 88.6686 68.6235 88.4219C68.0126 88.1751 67.4577 87.8078 66.9918 87.3419C66.5259 86.876 66.1586 86.3211 65.9119 85.7102C65.6651 85.0993 65.5439 84.4449 65.5555 83.7861C65.5672 83.1274 65.7114 82.4777 65.9795 81.8759C66.2477 81.274 66.6343 80.7324 67.1163 80.2832L97.993 49.4066L5.16675 49.4066C3.86554 49.4066 2.6176 48.8896 1.69751 47.9695C0.777403 47.0494 0.260504 45.8015 0.260504 44.5003C0.260504 43.1991 0.777403 41.9512 1.69751 41.0311C2.61761 40.111 3.86554 39.5941 5.16675 39.5941L97.993 39.5941L67.1163 8.71739C66.6343 8.26823 66.2477 7.72658 65.9795 7.12475C65.7114 6.52292 65.5672 5.87324 65.5555 5.21448C65.5439 4.55571 65.6651 3.90136 65.9119 3.29044C66.1586 2.67953 66.5259 2.12457 66.9918 1.65868C67.4577 1.19279 68.0126 0.825515 68.6236 0.578757C69.2345 0.331999 69.8888 0.210818 70.5476 0.222441C71.2063 0.234064 71.856 0.378253 72.4579 0.646409C73.0597 0.914564 73.6013 1.30119 74.0505 1.78323L113.301 41.0332Z" fill="white"/>
</svg>
