<svg width="311" height="312" viewBox="0 0 311 312" fill="none" xmlns="http://www.w3.org/2000/svg">
<path d="M45.3542 91.6474C43.5055 91.6474 41.9635 91.0254 40.7281 89.7814C39.4927 88.5374 38.8751 86.9996 38.8751 85.1682V49.779C38.8751 46.8158 39.8772 44.3278 41.8814 42.315C43.8856 40.3021 46.3736 39.3 49.3454 39.3086H84.7216C86.5617 39.3086 88.1038 39.9306 89.3478 41.1746C90.5918 42.4186 91.2138 43.9607 91.2138 45.8008C91.2138 47.6409 90.5918 49.1786 89.3478 50.4139C88.1038 51.6493 86.566 52.267 84.7346 52.267H51.8334V85.1682C51.8334 86.9996 51.2114 88.5374 49.9674 89.7814C48.7234 91.0254 47.1943 91.6474 45.3542 91.6474ZM49.3454 272.559C46.3823 272.559 43.8943 271.557 41.8814 269.552C39.8685 267.548 38.8664 265.06 38.8751 262.088V226.712C38.8751 224.872 39.4971 223.33 40.7411 222.086C41.9851 220.842 43.5271 220.224 45.3672 220.233C47.2073 220.242 48.745 220.859 49.9803 222.086C51.2157 223.313 51.8334 224.855 51.8334 226.712V259.6H84.7346C86.566 259.6 88.1038 260.222 89.3478 261.466C90.5918 262.71 91.2138 264.252 91.2138 266.092C91.2138 267.933 90.5918 269.47 89.3478 270.706C88.1038 271.941 86.566 272.559 84.7346 272.559H49.3454ZM226.278 272.559C224.438 272.559 222.896 271.937 221.652 270.693C220.408 269.449 219.791 267.907 219.799 266.067C219.808 264.226 220.426 262.689 221.652 261.453C222.879 260.218 224.421 259.6 226.278 259.6H259.167V226.712C259.167 224.872 259.789 223.33 261.033 222.086C262.277 220.842 263.819 220.224 265.659 220.233C267.499 220.242 269.037 220.859 270.272 222.086C271.507 223.313 272.125 224.855 272.125 226.712V262.088C272.125 265.06 271.123 267.548 269.119 269.552C267.114 271.557 264.626 272.559 261.655 272.559H226.278ZM265.633 91.6474C263.801 91.6474 262.264 91.0254 261.02 89.7814C259.776 88.5374 259.158 86.9996 259.167 85.1682V52.267H226.278C224.438 52.267 222.896 51.645 221.652 50.401C220.408 49.157 219.791 47.6149 219.799 45.7749C219.808 43.9348 220.426 42.3971 221.652 41.1617C222.879 39.9263 224.421 39.3086 226.278 39.3086H261.655C264.626 39.3086 267.114 40.3108 269.119 42.315C271.123 44.3192 272.125 46.8072 272.125 49.779V85.1552C272.125 86.9953 271.503 88.5374 270.259 89.7814C269.015 91.0254 267.473 91.6474 265.633 91.6474ZM219.54 235.679V219.974H235.246V235.679H219.54ZM219.54 204.281V188.576H235.246V204.281H219.54ZM203.848 219.974V204.281H219.54V219.974H203.848ZM188.142 235.679V219.974H203.848V235.679H188.142ZM172.45 219.974V204.281H188.142V219.974H172.45ZM203.848 188.576V172.883H219.54V188.576H203.848ZM188.142 204.281V188.576H203.848V204.281H188.142ZM172.45 188.576V172.883H188.142V188.576H172.45ZM182.855 138.984C179.883 138.984 177.404 137.982 175.417 135.978C173.43 133.965 172.437 131.477 172.437 128.514V86.6066C172.437 83.6348 173.443 81.1554 175.456 79.1685C177.46 77.1815 179.948 76.1881 182.92 76.1881H224.827C227.799 76.1881 230.278 77.1945 232.265 79.2074C234.252 81.2116 235.246 83.6996 235.246 86.6714V128.579C235.246 131.55 234.239 134.03 232.226 136.017C230.222 138.004 227.734 138.997 224.762 138.997L182.855 138.984ZM86.173 235.679C83.2012 235.679 80.7218 234.673 78.7349 232.66C76.7479 230.656 75.7545 228.168 75.7545 225.196V183.289C75.7545 180.317 76.7609 177.842 78.7738 175.864C80.778 173.877 83.266 172.883 86.2378 172.883H128.145C131.117 172.883 133.596 173.885 135.583 175.889C137.57 177.902 138.564 180.39 138.564 183.353V225.274C138.564 228.237 137.557 230.712 135.544 232.699C133.531 234.686 131.043 235.679 128.08 235.679H86.173ZM86.173 138.984C83.2012 138.984 80.7218 137.982 78.7349 135.978C76.7479 133.965 75.7545 131.477 75.7545 128.514V86.6066C75.7545 83.6348 76.7609 81.1554 78.7738 79.1685C80.778 77.1815 83.266 76.1881 86.2378 76.1881H128.145C131.117 76.1881 133.596 77.1945 135.583 79.2074C137.57 81.2116 138.564 83.6996 138.564 86.6714V128.579C138.564 131.55 137.557 134.03 135.544 136.017C133.531 138.004 131.043 138.997 128.08 138.997L86.173 138.984ZM87.2096 224.211H127.095V184.338H87.2096V224.211ZM87.2096 127.529H127.095V87.6432H87.2096V127.529ZM183.905 127.529H223.777V87.6432H183.905V127.529Z" fill="#004790"/>
</svg>
