<svg width="36" height="35" viewBox="0 0 36 35" fill="none" xmlns="http://www.w3.org/2000/svg">
<path d="M34.1722 0.442454L1.2462 11.4205C1.11138 11.4653 0.993404 11.5501 0.907933 11.6636C0.822461 11.7771 0.773546 11.9139 0.767686 12.0558C0.761825 12.1978 0.799298 12.3381 0.875123 12.4583C0.950949 12.5784 1.06154 12.6727 1.1922 12.7285L13.2922 17.9145C13.3556 17.9419 13.425 17.9525 13.4937 17.9451C13.5624 17.9377 13.628 17.9127 13.6842 17.8725L25.5462 9.39645C25.9142 9.13645 26.3662 9.58845 26.1062 9.95645L17.6302 21.8185C17.5906 21.8746 17.5661 21.9399 17.5591 22.0082C17.5521 22.0765 17.5628 22.1455 17.5902 22.2085L22.7742 34.3085C22.8298 34.4392 22.9239 34.5499 23.0439 34.6259C23.1639 34.7019 23.3042 34.7395 23.4461 34.7339C23.5881 34.7282 23.725 34.6796 23.8386 34.5943C23.9522 34.509 24.0371 34.3912 24.0822 34.2565L35.0602 1.32845C35.1015 1.20504 35.1076 1.07254 35.0778 0.945856C35.048 0.81917 34.9834 0.703305 34.8914 0.611276C34.7993 0.519246 34.6835 0.454695 34.5568 0.424874C34.4301 0.395052 34.2956 0.40114 34.1722 0.442454Z" fill="white"/>
</svg>
