<svg width="38" height="37" viewBox="0 0 38 37" fill="none" xmlns="http://www.w3.org/2000/svg">
<path d="M19 0C15.3411 0 11.7643 1.08501 8.72196 3.11781C5.67965 5.15062 3.30846 8.03992 1.90824 11.4204C0.508016 14.8008 0.141654 18.5205 0.855481 22.1092C1.56931 25.6978 3.33126 28.9942 5.91853 31.5815C8.5058 34.1687 11.8022 35.9307 15.3908 36.6445C18.9795 37.3583 22.6992 36.992 26.0796 35.5918C29.4601 34.1915 32.3494 31.8204 34.3822 28.778C36.415 25.7357 37.5 22.1589 37.5 18.5C37.5 13.5935 35.5509 8.88795 32.0815 5.41852C28.6121 1.9491 23.9065 0 19 0ZM31.0828 12.2909L15.8897 27.4725L6.91719 18.5C6.61054 18.1933 6.43826 17.7774 6.43826 17.3437C6.43826 16.9101 6.61054 16.4942 6.91719 16.1875C7.22385 15.8808 7.63977 15.7086 8.07344 15.7086C8.50712 15.7086 8.92304 15.8808 9.22969 16.1875L15.9128 22.8706L28.7934 10.0016C28.9453 9.84972 29.1255 9.72927 29.3239 9.6471C29.5223 9.56492 29.735 9.52263 29.9497 9.52263C30.1644 9.52263 30.3771 9.56492 30.5754 9.6471C30.7738 9.72927 30.9541 9.84972 31.1059 10.0016C31.2578 10.1534 31.3782 10.3337 31.4604 10.5321C31.5426 10.7304 31.5849 10.9431 31.5849 11.1578C31.5849 11.3725 31.5426 11.5852 31.4604 11.7836C31.3782 11.982 31.2578 12.1622 31.1059 12.3141L31.0828 12.2909Z" fill="black"/>
</svg>
