<svg width="369" height="369" viewBox="0 0 369 369" fill="none" xmlns="http://www.w3.org/2000/svg">
<circle cx="184.5" cy="184.5" r="178" stroke="#CC0000" stroke-width="13"/>
<path fill-rule="evenodd" clip-rule="evenodd" d="M184.5 295.406C213.914 295.406 242.124 283.722 262.923 262.923C283.722 242.124 295.406 213.914 295.406 184.5C295.406 155.086 283.722 126.876 262.923 106.077C242.124 85.2785 213.914 73.5938 184.5 73.5938C155.086 73.5938 126.876 85.2785 106.077 106.077C85.2785 126.876 73.5938 155.086 73.5938 184.5C73.5938 213.914 85.2785 242.124 106.077 262.923C126.876 283.722 155.086 295.406 184.5 295.406ZM184.5 321C220.702 321 255.421 306.619 281.02 281.02C306.619 255.421 321 220.702 321 184.5C321 148.298 306.619 113.579 281.02 87.9799C255.421 62.3812 220.702 48 184.5 48C148.298 48 113.579 62.3812 87.9799 87.9799C62.3812 113.579 48 148.298 48 184.5C48 220.702 62.3812 255.421 87.9799 281.02C113.579 306.619 148.298 321 184.5 321ZM201.562 235.688C201.562 240.213 199.765 244.553 196.565 247.753C193.365 250.952 189.025 252.75 184.5 252.75C179.975 252.75 175.635 250.952 172.435 247.753C169.235 244.553 167.438 240.213 167.438 235.688C167.438 231.162 169.235 226.822 172.435 223.622C175.635 220.423 179.975 218.625 184.5 218.625C189.025 218.625 193.365 220.423 196.565 223.622C199.765 226.822 201.562 231.162 201.562 235.688ZM197.297 129.047C197.297 125.653 195.949 122.398 193.549 119.998C191.149 117.598 187.894 116.25 184.5 116.25C181.106 116.25 177.851 117.598 175.451 119.998C173.051 122.398 171.703 125.653 171.703 129.047V188.766C171.703 192.16 173.051 195.414 175.451 197.814C177.851 200.214 181.106 201.562 184.5 201.562C187.894 201.562 191.149 200.214 193.549 197.814C195.949 195.414 197.297 192.16 197.297 188.766V129.047Z" fill="#CC0000"/>
</svg>
